<svg width="668" height="109" viewBox="0 0 668 109" fill="none" xmlns="http://www.w3.org/2000/svg">
<path d="M83.3906 107H62.2969L21.2344 39.6406V107H0.140625V4.625H21.2344L62.3672 72.125V4.625H83.3906V107ZM146.039 99.2656C141.023 105.359 134.086 108.406 125.227 108.406C117.07 108.406 110.836 106.062 106.523 101.375C102.258 96.6875 100.078 89.8203 99.9844 80.7734V30.9219H120.305V80.0703C120.305 87.9922 123.914 91.9531 131.133 91.9531C138.023 91.9531 142.758 89.5625 145.336 84.7812V30.9219H165.727V107H146.602L146.039 99.2656ZM205.383 12.2188V30.9219H218.391V45.8281H205.383V83.7969C205.383 86.6094 205.922 88.625 207 89.8438C208.078 91.0625 210.141 91.6719 213.188 91.6719C215.438 91.6719 217.43 91.5078 219.164 91.1797V106.578C215.18 107.797 211.078 108.406 206.859 108.406C192.609 108.406 185.344 101.211 185.062 86.8203V45.8281H173.953V30.9219H185.062V12.2188H205.383ZM272.461 49.9766C269.695 49.6016 267.258 49.4141 265.148 49.4141C257.461 49.4141 252.422 52.0156 250.031 57.2188V107H229.711V30.9219H248.906L249.469 39.9922C253.547 33.0078 259.195 29.5156 266.414 29.5156C268.664 29.5156 270.773 29.8203 272.742 30.4297L272.461 49.9766ZM303.75 107H283.359V30.9219H303.75V107ZM282.164 11.2344C282.164 8.1875 283.172 5.67969 285.188 3.71094C287.25 1.74219 290.039 0.757812 293.555 0.757812C297.023 0.757812 299.789 1.74219 301.852 3.71094C303.914 5.67969 304.945 8.1875 304.945 11.2344C304.945 14.3281 303.891 16.8594 301.781 18.8281C299.719 20.7969 296.977 21.7812 293.555 21.7812C290.133 21.7812 287.367 20.7969 285.258 18.8281C283.195 16.8594 282.164 14.3281 282.164 11.2344ZM361.758 85.9766C361.758 83.4922 360.516 81.5469 358.031 80.1406C355.594 78.6875 351.656 77.3984 346.219 76.2734C328.125 72.4766 319.078 64.7891 319.078 53.2109C319.078 46.4609 321.867 40.8359 327.445 36.3359C333.07 31.7891 340.406 29.5156 349.453 29.5156C359.109 29.5156 366.82 31.7891 372.586 36.3359C378.398 40.8828 381.305 46.7891 381.305 54.0547H360.984C360.984 51.1484 360.047 48.7578 358.172 46.8828C356.297 44.9609 353.367 44 349.383 44C345.961 44 343.312 44.7734 341.438 46.3203C339.562 47.8672 338.625 49.8359 338.625 52.2266C338.625 54.4766 339.68 56.3047 341.789 57.7109C343.945 59.0703 347.555 60.2656 352.617 61.2969C357.68 62.2812 361.945 63.4062 365.414 64.6719C376.148 68.6094 381.516 75.4297 381.516 85.1328C381.516 92.0703 378.539 97.6953 372.586 102.008C366.633 106.273 358.945 108.406 349.523 108.406C343.148 108.406 337.477 107.281 332.508 105.031C327.586 102.734 323.719 99.6172 320.906 95.6797C318.094 91.6953 316.688 87.4062 316.688 82.8125H335.953C336.141 86.4219 337.477 89.1875 339.961 91.1094C342.445 93.0312 345.773 93.9922 349.945 93.9922C353.836 93.9922 356.766 93.2656 358.734 91.8125C360.75 90.3125 361.758 88.3672 361.758 85.9766ZM438.75 107C437.812 105.172 437.133 102.898 436.711 100.18C431.789 105.664 425.391 108.406 417.516 108.406C410.062 108.406 403.875 106.25 398.953 101.938C394.078 97.625 391.641 92.1875 391.641 85.625C391.641 77.5625 394.617 71.375 400.57 67.0625C406.57 62.75 415.219 60.5703 426.516 60.5234H435.867V56.1641C435.867 52.6484 434.953 49.8359 433.125 47.7266C431.344 45.6172 428.508 44.5625 424.617 44.5625C421.195 44.5625 418.5 45.3828 416.531 47.0234C414.609 48.6641 413.648 50.9141 413.648 53.7734H393.328C393.328 49.3672 394.688 45.2891 397.406 41.5391C400.125 37.7891 403.969 34.8594 408.938 32.75C413.906 30.5937 419.484 29.5156 425.672 29.5156C435.047 29.5156 442.477 31.8828 447.961 36.6172C453.492 41.3047 456.258 47.9141 456.258 56.4453V89.4219C456.305 96.6406 457.312 102.102 459.281 105.805V107H438.75ZM421.945 92.8672C424.945 92.8672 427.711 92.2109 430.242 90.8984C432.773 89.5391 434.648 87.7344 435.867 85.4844V72.4062H428.273C418.102 72.4062 412.688 75.9219 412.031 82.9531L411.961 84.1484C411.961 86.6797 412.852 88.7656 414.633 90.4062C416.414 92.0469 418.852 92.8672 421.945 92.8672ZM490.57 30.9219L491.203 39.7109C496.641 32.9141 503.93 29.5156 513.07 29.5156C521.133 29.5156 527.133 31.8828 531.07 36.6172C535.008 41.3516 537.023 48.4297 537.117 57.8516V107H516.797V58.3438C516.797 54.0312 515.859 50.9141 513.984 48.9922C512.109 47.0234 508.992 46.0391 504.633 46.0391C498.914 46.0391 494.625 48.4766 491.766 53.3516V107H471.445V30.9219H490.57ZM576.914 12.2188V30.9219H589.922V45.8281H576.914V83.7969C576.914 86.6094 577.453 88.625 578.531 89.8438C579.609 91.0625 581.672 91.6719 584.719 91.6719C586.969 91.6719 588.961 91.5078 590.695 91.1797V106.578C586.711 107.797 582.609 108.406 578.391 108.406C564.141 108.406 556.875 101.211 556.594 86.8203V45.8281H545.484V30.9219H556.594V12.2188H576.914ZM636.258 108.406C625.102 108.406 616.008 104.984 608.977 98.1406C601.992 91.2969 598.5 82.1797 598.5 70.7891V68.8203C598.5 61.1797 599.977 54.3594 602.93 48.3594C605.883 42.3125 610.055 37.6719 615.445 34.4375C620.883 31.1562 627.07 29.5156 634.008 29.5156C644.414 29.5156 652.594 32.7969 658.547 39.3594C664.547 45.9219 667.547 55.2266 667.547 67.2734V75.5703H619.102C619.758 80.5391 621.727 84.5234 625.008 87.5234C628.336 90.5234 632.531 92.0234 637.594 92.0234C645.422 92.0234 651.539 89.1875 655.945 83.5156L665.93 94.6953C662.883 99.0078 658.758 102.383 653.555 104.82C648.352 107.211 642.586 108.406 636.258 108.406ZM633.938 45.9688C629.906 45.9688 626.625 47.3281 624.094 50.0469C621.609 52.7656 620.016 56.6562 619.312 61.7188H647.578V60.1016C647.484 55.6016 646.266 52.1328 643.922 49.6953C641.578 47.2109 638.25 45.9688 633.938 45.9688Z" fill="white"/>
</svg>
