<svg width="351" height="106" viewBox="0 0 351 106" fill="none" xmlns="http://www.w3.org/2000/svg">
<path d="M46.9688 78.6172L70.1719 1.625H93.6562L58.0078 104H36L0.492188 1.625H23.9062L46.9688 78.6172ZM164.953 59.6328H124.453V87.0547H171.984V104H103.359V1.625H171.844V18.7109H124.453V43.1094H164.953V59.6328ZM222.258 66.5234H205.453V104H184.359V1.625H222.398C234.492 1.625 243.82 4.32031 250.383 9.71094C256.945 15.1016 260.227 22.7188 260.227 32.5625C260.227 39.5469 258.703 45.3828 255.656 50.0703C252.656 54.7109 248.086 58.4141 241.945 61.1797L264.094 103.016V104H241.453L222.258 66.5234ZM205.453 49.4375H222.469C227.766 49.4375 231.867 48.1016 234.773 45.4297C237.68 42.7109 239.133 38.9844 239.133 34.25C239.133 29.4219 237.75 25.625 234.984 22.8594C232.266 20.0938 228.07 18.7109 222.398 18.7109H205.453V49.4375ZM329.414 77.1406C329.414 73.1562 328.008 70.1094 325.195 68C322.383 65.8438 317.32 63.5938 310.008 61.25C302.695 58.8594 296.906 56.5156 292.641 54.2188C281.016 47.9375 275.203 39.4766 275.203 28.8359C275.203 23.3047 276.75 18.3828 279.844 14.0703C282.984 9.71094 287.461 6.3125 293.273 3.875C299.133 1.4375 305.695 0.21875 312.961 0.21875C320.273 0.21875 326.789 1.55469 332.508 4.22656C338.227 6.85156 342.656 10.5781 345.797 15.4062C348.984 20.2344 350.578 25.7188 350.578 31.8594H329.484C329.484 27.1719 328.008 23.5391 325.055 20.9609C322.102 18.3359 317.953 17.0234 312.609 17.0234C307.453 17.0234 303.445 18.125 300.586 20.3281C297.727 22.4844 296.297 25.3437 296.297 28.9062C296.297 32.2344 297.961 35.0234 301.289 37.2734C304.664 39.5234 309.609 41.6328 316.125 43.6016C328.125 47.2109 336.867 51.6875 342.352 57.0312C347.836 62.375 350.578 69.0312 350.578 77C350.578 85.8594 347.227 92.8203 340.523 97.8828C333.82 102.898 324.797 105.406 313.453 105.406C305.578 105.406 298.406 103.977 291.938 101.117C285.469 98.2109 280.523 94.25 277.102 89.2344C273.727 84.2188 272.039 78.4062 272.039 71.7969H293.203C293.203 83.0938 299.953 88.7422 313.453 88.7422C318.469 88.7422 322.383 87.7344 325.195 85.7188C328.008 83.6562 329.414 80.7969 329.414 77.1406Z" fill="white"/>
</svg>
